<?xml version="1.0" standalone="no"?>
<!DOCTYPE svg PUBLIC "-//W3C//DTD SVG 20010904//EN"
 "http://www.w3.org/TR/2001/REC-SVG-20010904/DTD/svg10.dtd">
<svg version="1.0" xmlns="http://www.w3.org/2000/svg"
 width="129.000000pt" height="129.000000pt" viewBox="0 0 129.000000 129.000000"
 preserveAspectRatio="xMidYMid meet">
<metadata>
Created by potrace 1.14, written by Peter Selinger 2001-2017
</metadata>
<g transform="translate(0.000000,129.000000) scale(0.100000,-0.100000)"
fill="#000000" stroke="none">
<path d="M173 974 c3 -4 380 -44 408 -44 16 0 35 28 26 37 -3 2 -102 5 -221 7
-119 1 -215 1 -213 0z"/>
<path d="M664 972 c-17 -2 -22 -14 -32 -75 -6 -40 -25 -148 -42 -242 -53 -303
-62 -357 -57 -361 11 -11 190 -6 197 6 4 6 17 71 29 143 21 124 41 186 39 121
-1 -33 50 -255 61 -267 4 -4 37 -8 72 -8 132 -1 149 1 149 15 0 11 10 13 40 9
33 -5 40 -3 40 11 0 13 -10 16 -49 16 -45 0 -49 2 -54 28 -3 15 -9 35 -13 45
-6 17 -2 18 55 11 43 -5 61 -3 61 5 0 10 -56 16 -103 12 -17 -2 -27 16 -41 72
l-7 29 76 -7 c53 -5 75 -4 75 4 0 7 -27 11 -78 11 l-78 0 -11 43 c-7 23 -8 46
-4 50 5 4 45 4 90 -1 64 -6 81 -5 81 5 0 10 -21 13 -81 13 l-80 0 25 43 c26
42 27 42 81 41 30 -1 55 3 55 7 0 5 -20 9 -45 9 -25 0 -45 2 -45 6 0 3 10 23
23 44 15 28 29 40 45 40 12 0 22 5 22 10 0 6 -7 10 -16 10 -14 0 -14 2 0 22 9
12 16 37 16 55 l0 33 -72 0 c-40 0 -83 -3 -96 -6 -16 -5 -45 -44 -97 -132 -41
-69 -75 -132 -75 -139 0 -8 -4 -12 -8 -9 -5 3 2 64 16 136 13 73 22 134 19
136 -5 5 -155 10 -183 6z"/>
<path d="M175 863 c22 -2 120 -12 218 -23 98 -11 183 -18 188 -14 5 3 9 14 9
25 0 18 -8 19 -227 17 -126 -1 -210 -3 -188 -5z"/>
<path d="M285 744 c293 -30 285 -29 285 -5 0 21 -2 21 -207 20 l-208 -1 130
-14z"/>
<path d="M125 654 c20 -4 405 -44 418 -44 4 0 7 10 7 23 l0 22 -223 1 c-122 1
-213 0 -202 -2z"/>
<path d="M140 543 c19 -2 105 -10 190 -18 85 -9 165 -18 178 -20 18 -5 22 -1
22 20 l0 25 -212 -2 c-117 0 -197 -3 -178 -5z"/>
<path d="M76 443 c10 -2 407 -43 424 -43 5 0 10 10 10 23 l0 22 -221 0 c-122
1 -218 0 -213 -2z"/>
<path d="M265 315 c121 -13 221 -22 221 -22 1 1 5 12 8 25 l7 22 -228 -1 -228
-1 220 -23z"/>
</g>
</svg>
